<svg width="1180" height="610" viewBox="0 0 1180 610" fill="none" xmlns="http://www.w3.org/2000/svg" font-family="'SF Mono','JetBrains Mono','Fira Code',ui-monospace,monospace">
<title>Andrii Savenko — Full Stack Developer / AI Enthusiast</title>
<defs>
<linearGradient id="accent" x1="0" y1="0" x2="1" y2="1">
<stop offset="0%" stop-color="#2563EB"/><stop offset="50%" stop-color="#06B6D4"/><stop offset="100%" stop-color="#10B981"/></linearGradient>
<linearGradient id="asciiGrad" x1="0" y1="0" x2="1" y2="1">
<stop offset="0%" stop-color="#06B6D4"><animate attributeName="stop-color" values="#06B6D4;#2563EB;#10B981;#06B6D4" dur="8s" repeatCount="indefinite"/></stop>
<stop offset="100%" stop-color="#2563EB"><animate attributeName="stop-color" values="#2563EB;#10B981;#06B6D4;#2563EB" dur="8s" repeatCount="indefinite"/></stop></linearGradient>
<linearGradient id="pillGrad" x1="0" y1="0" x2="1" y2="0">
<stop offset="0%" stop-color="#2563EB" stop-opacity="0.14"/><stop offset="100%" stop-color="#06B6D4" stop-opacity="0.14"/></linearGradient>
<radialGradient id="glowBlue" cx="50%" cy="50%" r="50%"><stop offset="0%" stop-color="#06B6D4" stop-opacity="0.14"/><stop offset="100%" stop-color="#06B6D4" stop-opacity="0"/></radialGradient>
<radialGradient id="glowPurple" cx="50%" cy="50%" r="50%"><stop offset="0%" stop-color="#2563EB" stop-opacity="0.14"/><stop offset="100%" stop-color="#2563EB" stop-opacity="0"/></radialGradient>
<radialGradient id="glowEmerald" cx="50%" cy="50%" r="50%"><stop offset="0%" stop-color="#10B981" stop-opacity="0.10"/><stop offset="100%" stop-color="#10B981" stop-opacity="0"/></radialGradient>
<linearGradient id="glassReflect" x1="0" y1="0" x2="0" y2="1">
<stop offset="0%" stop-color="#FFFFFF" stop-opacity="0.55"/><stop offset="12%" stop-color="#FFFFFF" stop-opacity="0.15"/><stop offset="100%" stop-color="#FFFFFF" stop-opacity="0"/></linearGradient>
<linearGradient id="shimmer" x1="0" y1="0" x2="1" y2="0">
<stop offset="0%" stop-color="#06B6D4" stop-opacity="0"/><stop offset="50%" stop-color="#06B6D4" stop-opacity="0.9"/><stop offset="100%" stop-color="#06B6D4" stop-opacity="0"/></linearGradient>
<filter id="softGlow" x="-40%" y="-40%" width="180%" height="180%"><feGaussianBlur stdDeviation="3" result="b"/><feMerge><feMergeNode in="b"/><feMergeNode in="SourceGraphic"/></feMerge></filter>
<filter id="bigBlur" x="-60%" y="-60%" width="220%" height="220%"><feGaussianBlur stdDeviation="45"/></filter>
<filter id="noise"><feTurbulence type="fractalNoise" baseFrequency="0.9" numOctaves="2" stitchTiles="stitch"/><feColorMatrix type="saturate" values="0"/><feComponentTransfer><feFuncA type="linear" slope="0.02"/></feComponentTransfer></filter>
<clipPath id="cardClip"><rect x="0" y="0" width="1180" height="610" rx="26"/></clipPath>
<clipPath id="asciiClip"><rect x="40" y="120" width="360" height="400" rx="14"/></clipPath>
<mask id="asciiReveal"><rect x="0" y="0" width="448" height="120" fill="#fff">
<animate attributeName="height" values="120;120;520" keyTimes="0;0.12;1" dur="3.2s" fill="freeze"/></rect></mask>
</defs>
<g clip-path="url(#cardClip)">
<rect width="1180" height="610" fill="#FFFFFF"/>
<g filter="url(#bigBlur)">
<circle r="150" fill="url(#glowPurple)"><animate attributeName="cx" values="180;320;180" dur="14s" repeatCount="indefinite"/><animate attributeName="cy" values="200;420;200" dur="14s" repeatCount="indefinite"/></circle>
<circle r="170" fill="url(#glowBlue)"><animate attributeName="cx" values="900;720;900" dur="18s" repeatCount="indefinite"/><animate attributeName="cy" values="180;460;180" dur="18s" repeatCount="indefinite"/></circle>
<circle r="140" fill="url(#glowEmerald)"><animate attributeName="cx" values="600;760;600" dur="16s" repeatCount="indefinite"/><animate attributeName="cy" values="520;300;520" dur="16s" repeatCount="indefinite"/></circle></g>
<rect width="1180" height="610" filter="url(#noise)" opacity="0.35"/>
<g fill="#06B6D4">
<circle cx="986" cy="503" r="1.6" opacity="0.54"><animate attributeName="cy" values="503;483;503" dur="9.7s" repeatCount="indefinite"/><animate attributeName="opacity" values="0.15;0.54;0.15" dur="9.7s" repeatCount="indefinite"/></circle>
<circle cx="1100" cy="497" r="1.6" opacity="0.55"><animate attributeName="cy" values="497;477;497" dur="6.7s" repeatCount="indefinite"/><animate attributeName="opacity" values="0.15;0.55;0.15" dur="6.7s" repeatCount="indefinite"/></circle>
<circle cx="441" cy="108" r="1.5" opacity="0.56"><animate attributeName="cy" values="108;88;108" dur="6.6s" repeatCount="indefinite"/><animate attributeName="opacity" values="0.15;0.56;0.15" dur="6.6s" repeatCount="indefinite"/></circle>
<circle cx="145" cy="364" r="2.0" opacity="0.6"><animate attributeName="cy" values="364;344;364" dur="9.9s" repeatCount="indefinite"/><animate attributeName="opacity" values="0.15;0.6;0.15" dur="9.9s" repeatCount="indefinite"/></circle>
<circle cx="382" cy="379" r="1.1" opacity="0.42"><animate attributeName="cy" values="379;359;379" dur="8.1s" repeatCount="indefinite"/><animate attributeName="opacity" values="0.15;0.42;0.15" dur="8.1s" repeatCount="indefinite"/></circle>
<circle cx="449" cy="510" r="1.3" opacity="0.54"><animate attributeName="cy" values="510;490;510" dur="6.1s" repeatCount="indefinite"/><animate attributeName="opacity" values="0.15;0.54;0.15" dur="6.1s" repeatCount="indefinite"/></circle>
<circle cx="962" cy="362" r="1.9" opacity="0.59"><animate attributeName="cy" values="362;342;362" dur="8.1s" repeatCount="indefinite"/><animate attributeName="opacity" values="0.15;0.59;0.15" dur="8.1s" repeatCount="indefinite"/></circle>
<circle cx="1083" cy="62" r="1.7" opacity="0.48"><animate attributeName="cy" values="62;42;62" dur="7.8s" repeatCount="indefinite"/><animate attributeName="opacity" values="0.15;0.48;0.15" dur="7.8s" repeatCount="indefinite"/></circle>
<circle cx="230" cy="422" r="1.3" opacity="0.55"><animate attributeName="cy" values="422;402;422" dur="9.0s" repeatCount="indefinite"/><animate attributeName="opacity" values="0.15;0.55;0.15" dur="9.0s" repeatCount="indefinite"/></circle>
<circle cx="120" cy="95" r="1.6" opacity="0.43"><animate attributeName="cy" values="95;75;95" dur="6.4s" repeatCount="indefinite"/><animate attributeName="opacity" values="0.15;0.43;0.15" dur="6.4s" repeatCount="indefinite"/></circle>
<circle cx="655" cy="257" r="1.2" opacity="0.61"><animate attributeName="cy" values="257;237;257" dur="6.1s" repeatCount="indefinite"/><animate attributeName="opacity" values="0.15;0.61;0.15" dur="6.1s" repeatCount="indefinite"/></circle>
<circle cx="497" cy="167" r="1.9" opacity="0.51"><animate attributeName="cy" values="167;147;167" dur="6.2s" repeatCount="indefinite"/><animate attributeName="opacity" values="0.15;0.51;0.15" dur="6.2s" repeatCount="indefinite"/></circle>
<circle cx="873" cy="274" r="1.2" opacity="0.63"><animate attributeName="cy" values="274;254;274" dur="8.5s" repeatCount="indefinite"/><animate attributeName="opacity" values="0.15;0.63;0.15" dur="8.5s" repeatCount="indefinite"/></circle>
<circle cx="612" cy="232" r="1.2" opacity="0.69"><animate attributeName="cy" values="232;212;232" dur="7.3s" repeatCount="indefinite"/><animate attributeName="opacity" values="0.15;0.69;0.15" dur="7.3s" repeatCount="indefinite"/></circle>
<circle cx="301" cy="128" r="1.3" opacity="0.42"><animate attributeName="cy" values="128;108;128" dur="6.4s" repeatCount="indefinite"/><animate attributeName="opacity" values="0.15;0.42;0.15" dur="6.4s" repeatCount="indefinite"/></circle>
<circle cx="1057" cy="150" r="1.7" opacity="0.55"><animate attributeName="cy" values="150;130;150" dur="6.8s" repeatCount="indefinite"/><animate attributeName="opacity" values="0.15;0.55;0.15" dur="6.8s" repeatCount="indefinite"/></circle>
</g>
<rect width="1180" height="610" fill="url(#glassReflect)"/>
<g>
<rect x="40" y="70" width="360" height="470" rx="18" fill="#F8FAFC" fill-opacity="0.85" stroke="rgba(15,23,42,0.08)"/>
<rect x="40" y="70" width="360" height="46" rx="18" fill="#F8FAFC" fill-opacity="0.9"/>
<circle cx="66" cy="93" r="5" fill="#ef4444"/><circle cx="86" cy="93" r="5" fill="#eab308"/><circle cx="106" cy="93" r="5" fill="#22c55e"/>
<text x="200" y="97" fill="#475569" font-size="12" text-anchor="middle" letter-spacing="1">~/neural_agent.ai</text>
<g clip-path="url(#asciiClip)">
<g fill="url(#asciiGrad)" font-size="12.5" filter="url(#softGlow)" letter-spacing="0.5">
<animateTransform attributeName="transform" type="translate" values="0 0;0 -6;0 0" dur="6s" repeatCount="indefinite"/>
<g mask="url(#asciiReveal)">
<text x="66" y="150">        _____________</text>
<text x="66" y="167">       /  A I  C O R E \</text>
<text x="66" y="184">      | .-----------. |</text>
<text x="66" y="201">      | | [o]   [o] | |</text>
<text x="66" y="218">      | |    ___    | |</text>
<text x="66" y="235">      | |   |___|   | |</text>
<text x="66" y="252">      | '-----------' |</text>
<text x="66" y="269">       \_____________/</text>
<text x="66" y="286">        || || || ||</text>
<text x="66" y="303">     .---o--o--o--o---.</text>
<text x="66" y="320">    ( o )  N E T  ( o )</text>
<text x="66" y="337">     '--o--o--o--o--'</text>
<text x="66" y="354">      /  |  \  /  |  \</text>
<text x="66" y="371">    (o)-(o)-(o)-(o)-(o)</text>
<text x="66" y="388">      \  |  /  \  |  /</text>
<text x="66" y="405">       (o)--(o)--(o)</text>
<text x="66" y="422">          \  |  /</text>
<text x="66" y="439">         [ OUTPUT ]</text>
<text x="66" y="456">         01001010</text>
<text x="66" y="473">         &gt; savenko.dev()</text>
</g></g>
<g fill="#10B981">
<circle cx="120" cy="367" r="2.4"><animate attributeName="opacity" values="0.2;1;0.2" dur="2s" begin="0.0s" repeatCount="indefinite"/></circle>
<circle cx="200" cy="367" r="2.4"><animate attributeName="opacity" values="0.2;1;0.2" dur="2s" begin="0.4s" repeatCount="indefinite"/></circle>
<circle cx="280" cy="367" r="2.4"><animate attributeName="opacity" values="0.2;1;0.2" dur="2s" begin="0.8s" repeatCount="indefinite"/></circle>
</g>
<rect x="40" y="120" width="360" height="26" fill="#06B6D4" opacity="0.07"><animate attributeName="y" values="120;480;120" dur="4s" repeatCount="indefinite"/></rect>
<rect x="240" y="480" width="9" height="13" fill="#06B6D4"><animate attributeName="opacity" values="1;1;0;0" dur="1s" repeatCount="indefinite"/></rect>
</g></g>
<g>
<rect x="470" y="70" width="672" height="470" rx="18" fill="#F8FAFC" fill-opacity="0.9" stroke="rgba(15,23,42,0.08)"/>
<rect x="470" y="70" width="672" height="46" rx="18" fill="#F8FAFC" fill-opacity="1"/>
<circle cx="496" cy="93" r="5" fill="#ef4444"/><circle cx="516" cy="93" r="5" fill="#eab308"/><circle cx="536" cy="93" r="5" fill="#22c55e"/>
<text x="806" y="97" fill="#475569" font-size="12" text-anchor="middle" letter-spacing="1">andrii — zsh</text>
<text x="504" y="158" fill="#0F172A" font-size="26" font-weight="700">Hi <tspan font-size="24">👋</tspan> I&apos;m <tspan fill="url(#accent)">Andrii Savenko</tspan></text>
<g font-size="17">
<text x="504" y="192" fill="#475569">$ role:</text>
<g>
<text x="566" y="192" fill="#06B6D4"><tspan>Full Stack Developer</tspan><animate attributeName="opacity" values="1;1;0" keyTimes="0;0.9;1" dur="3.0s" begin="0s;6.0s" fill="freeze"/></text>
<text x="566" y="192" fill="#2563EB" opacity="0"><tspan>AI Enthusiast</tspan><animate attributeName="opacity" values="0;1;1;0" keyTimes="0;0.04;0.9;1" dur="3.0s" begin="3.0s;9.0s" fill="freeze"/></text>
</g></g>
<rect x="566" y="180" width="8" height="15" fill="#06B6D4"><animate attributeName="opacity" values="1;0" dur="0.8s" repeatCount="indefinite"/></rect>
<g font-size="14" fill="#475569">
<g opacity="0"><animate attributeName="opacity" values="0;1" dur="0.4s" begin="0.6s" fill="freeze"/><text x="504" y="230"><tspan fill="#2563EB">📍 Location</tspan><tspan x="640" fill="#0F172A">Netherlands, Groningen</tspan></text></g>
<g opacity="0"><animate attributeName="opacity" values="0;1" dur="0.4s" begin="0.9s" fill="freeze"/><text x="504" y="256"><tspan fill="#06B6D4">🎓 Education</tspan><tspan x="640" fill="#0F172A">DevEducation</tspan></text></g>
<g opacity="0"><animate attributeName="opacity" values="0;1" dur="0.4s" begin="1.2s" fill="freeze"/><text x="504" y="282"><tspan fill="#10B981">⚡ Focus</tspan><tspan x="640" fill="#0F172A">Focus on my goals</tspan></text></g>
<g opacity="0"><animate attributeName="opacity" values="0;1" dur="0.4s" begin="1.5s" fill="freeze"/><text x="504" y="308"><tspan fill="#2563EB">🌐 Portfolio</tspan><tspan x="640" fill="#0F172A">andriisavenko.dev</tspan></text></g>
<g opacity="0"><animate attributeName="opacity" values="0;1" dur="0.4s" begin="1.8s" fill="freeze"/><text x="504" y="334"><tspan fill="#06B6D4">✉️ Email</tspan><tspan x="640" fill="#0F172A">andrey.sawencko@gmail.com</tspan></text></g>
</g>
<g opacity="0"><animate attributeName="opacity" values="0;1" dur="0.5s" begin="2.0s" fill="freeze"/>
<text x="504" y="382" fill="#94A3B8" font-size="12" letter-spacing="2">SKILLS</text>
<g font-size="12.5" fill="#0F172A" text-anchor="middle">
<g><rect x="504" y="392" width="64" height="26" rx="13" fill="url(#pillGrad)" stroke="#06B6D4" stroke-opacity="0.4"><animate attributeName="stroke-opacity" values="0.3;0.7;0.3" dur="2.6s" repeatCount="indefinite"/></rect><text x="536" y="409">React</text></g>
<g><rect x="576" y="392" width="79" height="26" rx="13" fill="url(#pillGrad)" stroke="#2563EB" stroke-opacity="0.4"><animate attributeName="stroke-opacity" values="0.3;0.7;0.3" dur="2.8s" repeatCount="indefinite"/></rect><text x="615" y="409">Next.js</text></g>
<g><rect x="663" y="392" width="79" height="26" rx="13" fill="url(#pillGrad)" stroke="#10B981" stroke-opacity="0.4"><animate attributeName="stroke-opacity" values="0.3;0.7;0.3" dur="3.0s" repeatCount="indefinite"/></rect><text x="702" y="409">Node.js</text></g>
<g><rect x="750" y="392" width="102" height="26" rx="13" fill="url(#pillGrad)" stroke="#06B6D4" stroke-opacity="0.4"><animate attributeName="stroke-opacity" values="0.3;0.7;0.3" dur="3.2s" repeatCount="indefinite"/></rect><text x="801" y="409">TypeScript</text></g>
<g><rect x="860" y="392" width="86" height="26" rx="13" fill="url(#pillGrad)" stroke="#2563EB" stroke-opacity="0.4"><animate attributeName="stroke-opacity" values="0.3;0.7;0.3" dur="3.4s" repeatCount="indefinite"/></rect><text x="903" y="409">Tailwind</text></g>
<g><rect x="954" y="392" width="71" height="26" rx="13" fill="url(#pillGrad)" stroke="#10B981" stroke-opacity="0.4"><animate attributeName="stroke-opacity" values="0.3;0.7;0.3" dur="2.6s" repeatCount="indefinite"/></rect><text x="989" y="409">Docker</text></g>
<g><rect x="1033" y="392" width="86" height="26" rx="13" fill="url(#pillGrad)" stroke="#06B6D4" stroke-opacity="0.4"><animate attributeName="stroke-opacity" values="0.3;0.7;0.3" dur="2.8s" repeatCount="indefinite"/></rect><text x="1076" y="409">Postgres</text></g>
<g><rect x="504" y="426" width="48" height="26" rx="13" fill="url(#pillGrad)" stroke="#2563EB" stroke-opacity="0.4"><animate attributeName="stroke-opacity" values="0.3;0.7;0.3" dur="3.0s" repeatCount="indefinite"/></rect><text x="528" y="443">AWS</text></g>
<g><rect x="560" y="426" width="48" height="26" rx="13" fill="url(#pillGrad)" stroke="#10B981" stroke-opacity="0.4"><animate attributeName="stroke-opacity" values="0.3;0.7;0.3" dur="3.2s" repeatCount="indefinite"/></rect><text x="584" y="443">Git</text></g>
<g><rect x="616" y="426" width="64" height="26" rx="13" fill="url(#pillGrad)" stroke="#06B6D4" stroke-opacity="0.4"><animate attributeName="stroke-opacity" values="0.3;0.7;0.3" dur="3.4s" repeatCount="indefinite"/></rect><text x="648" y="443">Figma</text></g>
</g></g>
<g opacity="0"><animate attributeName="opacity" values="0;1" dur="0.5s" begin="2.5s" fill="freeze"/>
<text x="504" y="486" fill="#94A3B8" font-size="12" letter-spacing="2">CONNECT</text>
<g stroke="#06B6D4" stroke-width="1.6" fill="none" filter="url(#softGlow)">
<animate attributeName="stroke" values="#06B6D4;#2563EB;#10B981;#06B6D4" dur="8s" repeatCount="indefinite"/>
<circle cx="516" cy="512" r="15"/><path d="M510 519c0-3 0-4 1-5-3 0-6-2-6-6 0-1 0-2 1-3 0-1 0-2 0-3 0 0 1 0 3 1 2-1 4-1 6 0 2-1 3-1 3-1 0 1 0 2 0 3 1 1 1 2 1 3 0 4-3 6-6 6 1 1 1 2 1 4v2" stroke-width="1.3"/>
<circle cx="556" cy="512" r="15"/><path d="M551 508v9M551 505v0.5M557 517v-5c0-3 4-3 4 0v5" stroke-width="1.3"/>
<circle cx="596" cy="512" r="15"/><circle cx="596" cy="512" r="7.5"/><path d="M588.5 512h15M596 504.5c3 3 3 12 0 15M596 504.5c-3 3-3 12 0 15" stroke-width="1.1"/>
<circle cx="636" cy="512" r="15"/><path d="M629 507h14v10h-14z" stroke-width="1.3"/><path d="M629 507l7 6 7-6" stroke-width="1.3"/>
</g>
<g font-size="11" fill="#475569" text-anchor="middle">
<text x="516" y="540">GitHub</text>
<text x="556" y="540">LinkedIn</text>
<text x="596" y="540">Portfolio</text>
<text x="636" y="540">Email</text>
</g>
<text x="680" y="516" font-size="12" fill="#94A3B8">github.com/SavenkoAndrii · andriisavenko.dev</text>
</g>
</g>
<rect x="1" y="1" width="1178" height="608" rx="26" fill="none" stroke="url(#accent)" stroke-width="1.5" stroke-opacity="0.35"/>
<rect x="1" y="1" width="1178" height="608" rx="26" fill="none" stroke="url(#shimmer)" stroke-width="2" pathLength="1" stroke-dasharray="0.15 0.85"><animate attributeName="stroke-dashoffset" values="1;0" dur="5s" repeatCount="indefinite"/></rect>
</g></svg>
